<?xml version="1.0" standalone="no"?>
<!DOCTYPE svg PUBLIC "-//W3C//DTD SVG 20010904//EN"
 "http://www.w3.org/TR/2001/REC-SVG-20010904/DTD/svg10.dtd">
<svg version="1.0" xmlns="http://www.w3.org/2000/svg"
 width="1435.000000pt" height="1298.000000pt" viewBox="0 0 1435.000000 1298.000000"
 preserveAspectRatio="xMidYMid meet">

<g transform="translate(0.000000,1298.000000) scale(0.100000,-0.100000)"
fill="#000000" stroke="none">
<path d="M6864 10672 c-69 -45 -149 -119 -208 -190 -30 -38 -66 -74 -80 -81
-26 -14 -38 -37 -56 -110 -13 -51 -26 -76 -57 -111 -15 -17 -26 -47 -32 -92
-5 -36 -16 -81 -25 -100 -8 -18 -16 -52 -18 -76 -4 -55 -19 -56 -38 -4 -18 48
-25 56 -40 47 -8 -5 -8 -11 1 -21 7 -9 8 -14 1 -14 -5 0 -8 -10 -4 -22 3 -14
2 -19 -6 -14 -7 4 -12 14 -12 22 0 21 -41 59 -49 45 -4 -6 -13 16 -19 49 -7
34 -17 58 -22 55 -15 -9 -12 -39 10 -89 10 -25 15 -46 11 -46 -5 0 -11 7 -15
15 -3 8 -10 15 -15 15 -17 0 -18 -34 -1 -70 10 -19 20 -55 23 -78 5 -43 59
-133 115 -194 14 -16 21 -28 16 -28 -22 0 -55 34 -102 107 -28 43 -59 89 -70
103 -24 32 -49 109 -58 179 -5 42 -9 50 -17 36 -11 -21 -1 -168 13 -196 6 -9
13 -35 16 -56 3 -21 10 -42 14 -48 13 -16 23 -85 13 -85 -12 0 -93 85 -93 98
0 5 -11 14 -24 21 -13 7 -37 38 -52 68 -30 56 -46 56 -23 0 18 -46 84 -153
130 -213 44 -57 48 -70 20 -54 -24 12 -31 13 -31 2 0 -11 18 -31 107 -114 39
-38 69 -68 67 -68 -14 0 -76 37 -124 75 -109 84 -144 85 -62 2 29 -29 52 -56
52 -60 0 -4 -20 4 -45 19 -56 32 -62 14 -13 -41 l31 -36 -27 7 c-23 6 -27 4
-25 -12 2 -11 0 -25 -4 -32 -10 -15 28 -72 48 -72 8 0 32 -9 54 -21 36 -18 39
-23 26 -36 -8 -8 -20 -23 -25 -34 -10 -17 -7 -19 21 -19 29 0 31 -2 25 -26 -6
-24 -5 -26 16 -20 45 12 178 19 178 9 0 -5 -16 -35 -35 -67 -19 -32 -35 -65
-35 -73 0 -9 -15 -36 -34 -62 -40 -55 -62 -123 -47 -149 9 -15 10 -14 11 8 1
35 33 101 61 127 23 21 98 58 104 51 2 -2 -20 -36 -50 -76 -70 -95 -139 -273
-90 -232 8 7 15 21 15 31 0 11 5 19 11 19 8 0 10 -14 6 -44 -6 -40 -4 -44 17
-48 22 -4 24 -1 30 54 3 36 16 76 30 100 l23 39 7 -27 c4 -15 4 -55 1 -89 -5
-42 -3 -65 4 -69 6 -4 11 -22 11 -39 l0 -32 28 33 28 33 24 -26 c18 -19 24
-38 26 -84 1 -32 9 -71 17 -87 18 -37 28 -113 17 -133 -4 -9 -11 -38 -14 -65
-4 -27 -18 -75 -31 -107 -14 -32 -25 -68 -25 -79 0 -11 -4 -20 -9 -20 -5 0
-36 -18 -70 -41 -65 -44 -195 -186 -251 -276 -33 -53 -35 -61 -34 -142 1 -179
23 -649 34 -714 33 -215 73 -324 135 -372 42 -31 111 -63 155 -70 l36 -5 -4
-94 c-2 -52 1 -141 8 -197 12 -102 86 -422 114 -489 8 -19 29 -81 47 -138 30
-95 31 -103 15 -120 -9 -10 -16 -26 -16 -36 0 -9 -12 -21 -27 -26 -53 -19 -88
-43 -146 -99 -55 -53 -197 -231 -197 -246 0 -4 -13 -24 -30 -45 -16 -21 -30
-40 -30 -43 0 -3 -20 -38 -45 -78 -25 -40 -45 -76 -45 -80 0 -4 7 -15 16 -23
12 -12 14 -29 9 -76 -6 -55 -5 -60 13 -60 35 0 44 -25 44 -127 0 -79 -7 -128
-36 -248 -19 -82 -44 -188 -55 -235 l-19 -84 40 -121 c46 -139 76 -201 131
-268 21 -26 70 -108 109 -182 38 -74 71 -135 72 -135 1 0 1 18 -1 39 -1 22 2
43 7 46 6 3 10 14 10 23 0 14 11 17 55 19 30 1 57 -2 60 -7 8 -13 107 -3 140
14 19 10 42 14 63 10 24 -5 38 -2 53 12 14 13 22 15 31 6 14 -14 48 6 41 26
-3 8 0 13 8 12 27 -4 39 0 39 15 0 8 6 12 14 9 17 -6 40 31 32 51 -2 7 4 21
15 31 11 10 18 25 16 33 -2 9 13 32 32 51 46 44 71 84 71 110 0 11 6 20 13 20
6 0 20 19 30 43 15 36 19 39 28 25 12 -22 42 -23 59 -3 16 19 50 20 50 1 0 -9
7 -12 20 -9 11 3 20 12 20 19 0 8 9 14 20 14 14 0 20 6 18 18 -4 23 34 28 52
6 12 -14 12 -20 -2 -45 -9 -16 -13 -31 -8 -34 5 -3 11 4 15 15 3 11 11 20 16
20 5 0 9 14 9 31 0 17 4 28 10 24 6 -3 10 -15 10 -26 0 -21 0 -21 80 -21 30 0
56 5 58 11 2 6 13 11 25 11 20 0 20 0 1 -15 -10 -8 -27 -15 -37 -15 -15 0 -16
-3 -7 -20 8 -16 21 -20 59 -20 57 0 161 32 173 54 5 8 48 36 96 62 48 26 95
54 104 62 10 8 38 18 63 23 61 11 145 63 173 104 12 19 52 52 89 74 37 22 80
51 94 65 14 13 36 27 50 31 13 4 45 24 70 44 26 20 57 43 70 51 12 8 33 25 46
38 13 12 40 29 59 37 60 25 152 89 169 118 9 15 23 27 31 27 8 0 14 5 14 11 0
5 17 17 38 25 59 23 82 37 82 46 0 5 -10 6 -22 3 -13 -4 -2 6 23 23 52 34 96
51 85 33 -4 -6 -2 -11 4 -11 7 0 9 8 5 20 -5 14 -2 20 9 20 9 0 16 4 16 8 0 4
14 16 30 26 17 9 28 21 25 26 -3 5 10 12 28 15 22 4 43 18 57 37 12 16 24 27
26 25 7 -7 58 42 89 83 14 18 60 70 103 114 64 67 191 211 220 251 54 73 102
145 102 152 1 4 14 24 30 43 17 19 30 38 30 44 0 5 11 33 26 63 14 30 22 62
19 72 -3 12 0 21 9 24 12 5 15 23 14 84 -2 56 4 98 19 148 12 39 29 102 38
140 9 39 22 79 29 90 7 11 16 36 19 55 5 37 70 227 81 238 4 3 16 0 28 -7 16
-10 22 -10 28 -1 5 9 9 9 14 1 4 -6 2 -11 -3 -11 -6 0 -11 -5 -11 -11 0 -6 7
-9 15 -5 9 3 24 -3 35 -14 38 -38 90 -22 90 28 0 8 8 24 17 34 16 18 15 22
-15 82 -40 79 -52 90 -93 81 l-32 -7 7 38 c4 22 21 56 37 76 16 20 29 43 29
50 0 8 15 41 33 75 48 92 173 194 264 215 49 12 51 14 46 39 -3 15 2 50 11 77
10 28 14 61 11 75 -5 17 -2 28 8 34 16 9 77 143 80 173 1 16 3 17 21 4 33 -23
71 -18 84 11 17 36 15 51 -7 72 -11 10 -22 39 -26 66 -6 39 -5 47 9 47 9 0 16
8 16 19 0 11 5 23 10 26 6 3 10 17 10 31 0 17 5 24 20 24 11 0 20 5 20 10 0 6
8 10 19 10 26 0 44 32 70 126 18 62 22 95 17 140 -3 33 -6 70 -5 84 0 14 2
122 4 240 2 118 4 245 5 282 2 47 -4 84 -20 130 -14 38 -22 84 -22 117 1 30
-3 75 -9 100 -6 25 -13 59 -16 75 -13 79 -55 171 -124 271 -41 59 -79 110 -86
112 -7 3 -13 11 -13 17 0 13 -151 186 -216 248 -22 20 -48 38 -58 40 -11 1
-21 9 -24 16 -3 11 0 12 17 3 17 -9 21 -9 21 2 0 18 -39 57 -113 113 -64 48
-131 118 -165 174 -11 19 -33 44 -49 55 -15 11 -46 39 -68 62 -44 45 -200 143
-279 175 -120 48 -158 60 -283 88 -72 16 -149 38 -171 49 -21 11 -69 27 -107
36 -37 8 -95 26 -129 39 -179 71 -222 80 -386 82 -86 1 -176 7 -200 14 -59 16
-274 27 -375 19 -50 -4 -114 -19 -170 -38 -86 -30 -236 -71 -318 -85 -21 -4
-52 -15 -69 -25 -39 -25 -60 -18 -80 27 l-16 37 -1 -42 c-1 -24 -1 -46 -2 -50
-1 -13 -109 -63 -144 -67 -18 -2 -42 -9 -53 -15 -12 -6 -25 -11 -31 -11 -16 0
-13 36 4 50 8 7 15 22 15 34 0 12 5 27 12 34 7 7 8 12 2 12 -5 0 -24 -27 -42
-60 -18 -33 -30 -60 -27 -60 3 0 0 -9 -9 -21 -8 -12 -48 -36 -90 -54 -42 -18
-85 -44 -95 -56 -11 -13 -22 -21 -25 -18 -12 11 4 35 35 53 24 14 28 20 18 27
-10 6 -3 9 20 9 26 0 32 3 27 16 -5 13 -1 15 23 12 23 -3 31 0 35 16 3 11 0
26 -6 33 -19 23 -18 62 2 73 10 5 20 17 24 25 7 19 -3 14 -51 -24 -18 -14 -33
-33 -33 -40 0 -8 -12 -28 -27 -43 -23 -24 -25 -30 -13 -38 9 -6 10 -10 3 -10
-6 0 -14 -8 -17 -18 -4 -11 -15 -18 -28 -18 -16 1 -22 -6 -24 -29 -6 -55 -7
-55 -19 -45 -9 7 -14 6 -18 -5 -4 -8 -3 -14 1 -13 4 1 15 -2 24 -6 9 -4 26 -3
37 4 16 8 21 8 21 -1 0 -6 -8 -13 -18 -15 -9 -3 -29 -21 -42 -41 -23 -33 -25
-35 -28 -15 -2 12 -7 22 -12 22 -11 0 -21 -30 -14 -41 3 -5 2 -38 -1 -73 l-7
-63 -40 11 c-35 11 -57 29 -58 48 0 4 16 4 35 1 34 -5 41 1 36 30 -1 4 3 17 9
27 17 32 -7 23 -26 -9 l-17 -30 -101 1 c-138 0 -134 1 -161 -28 l-24 -26 -12
44 c-16 53 -13 189 6 277 10 50 21 72 43 92 20 18 37 50 53 99 26 83 71 147
134 190 38 26 63 50 53 50 -2 0 -22 -12 -44 -28z m1683 -138 c-3 -3 -12 -4
-19 -1 -8 3 -5 6 6 6 11 1 17 -2 13 -5z m318 -4 c3 -5 -1 -10 -9 -10 -8 0 -18
5 -21 10 -3 6 1 10 9 10 8 0 18 -4 21 -10z m-568 -96 c-3 -3 -12 -4 -19 -1 -8
3 -5 6 6 6 11 1 17 -2 13 -5z m806 -21 c-7 -2 -21 -2 -30 0 -10 3 -4 5 12 5
17 0 24 -2 18 -5z m77 -13 c12 -8 11 -10 -7 -10 -12 0 -25 5 -28 10 -8 13 15
13 35 0z m-257 -17 c-7 -2 -19 -2 -25 0 -7 3 -2 5 12 5 14 0 19 -2 13 -5z
m-1719 -48 c6 -16 -21 -35 -49 -35 -14 0 -14 2 1 25 18 28 39 32 48 10z m25
-132 c-12 -15 -12 -16 1 -9 8 4 6 0 -4 -8 -11 -9 -23 -16 -27 -16 -5 0 -19
-10 -33 -22 -70 -65 -115 -86 -58 -28 15 16 41 43 57 60 43 45 98 65 64 23z
m2404 -70 c-7 -2 -21 -2 -30 0 -10 3 -4 5 12 5 17 0 24 -2 18 -5z m-93 -93 c0
-5 -2 -10 -4 -10 -3 0 -8 5 -11 10 -3 6 -1 10 4 10 6 0 11 -4 11 -10z m-2413
-52 c-3 -7 -5 -2 -5 12 0 14 2 19 5 13 2 -7 2 -19 0 -25z m-272 -19 c6 -7 5
-13 -4 -18 -10 -6 -11 -14 -3 -26 9 -17 10 -17 21 4 14 26 24 21 45 -19 14
-29 13 -30 -7 -31 -12 -1 -25 -1 -29 0 -5 0 -8 -3 -8 -8 0 -13 25 -20 52 -14
16 3 19 2 10 -4 -9 -7 -10 -17 -4 -34 11 -29 -2 -69 -22 -69 -27 0 -46 12 -46
30 0 10 -7 21 -16 24 -10 4 -14 16 -12 38 3 35 -3 37 -67 26 -13 -2 -23 6 -32
24 -8 15 -22 30 -33 33 -34 11 -24 42 16 52 43 10 125 5 139 -8z m3344 -40
c13 -11 21 -19 18 -19 -10 0 -117 50 -117 54 0 10 77 -18 99 -35z m-1532 25
c-3 -3 -12 -4 -19 -1 -8 3 -5 6 6 6 11 1 17 -2 13 -5z m-2187 -87 c0 -5 -4 -5
-10 -2 -5 3 -10 14 -10 23 0 15 2 15 10 2 5 -8 10 -19 10 -23z m-120 -44 c45
-46 45 -46 15 -39 -37 9 -75 43 -75 68 0 27 11 22 60 -29z m675 11 c20 -15 20
-16 -4 -12 -14 2 -26 9 -29 16 -5 16 9 15 33 -4z m3324 -83 c36 -39 47 -57 38
-63 -8 -5 -7 -8 6 -8 9 0 17 -2 17 -4 0 -2 3 -12 6 -21 9 -22 -61 19 -101 61
-16 17 -38 33 -47 37 -22 8 -24 37 -3 37 12 0 14 7 9 28 -6 26 -6 26 9 7 8
-11 38 -45 66 -74z m-3549 49 c6 -11 7 -20 3 -20 -5 0 -14 9 -21 20 -7 11 -8
20 -2 20 5 0 14 -9 20 -20z m3391 3 c13 -15 12 -15 -8 -4 -24 12 -29 21 -14
21 5 0 15 -7 22 -17z m-3436 -71 c-7 -7 -55 39 -55 52 0 5 13 -3 30 -19 16
-16 28 -31 25 -33z m-384 -59 c13 -16 12 -17 -3 -4 -10 7 -18 15 -18 17 0 8 8
3 21 -13z m3884 -11 c-3 -3 -11 0 -18 7 -9 10 -8 11 6 5 10 -3 15 -9 12 -12z
m76 -49 c10 -12 5 -11 -18 6 -18 12 -33 24 -33 27 0 9 37 -15 51 -33z m-316 7
l20 -9 -20 -1 c-19 -1 -19 -1 -2 -15 15 -11 17 -17 8 -32 -10 -15 -11 -15 -9
-1 2 9 -10 28 -27 42 -26 22 -27 26 -10 25 11 0 29 -4 40 -9z m45 -51 c0 -6
-4 -7 -10 -4 -5 3 -10 11 -10 16 0 6 5 7 10 4 6 -3 10 -11 10 -16z m206 -12
c4 -4 -2 -7 -14 -7 -12 0 -22 4 -22 9 0 10 26 9 36 -2z m38 -27 c18 0 49 -37
41 -49 -3 -6 -1 -11 6 -11 7 0 9 -3 6 -6 -4 -4 -19 -1 -36 5 -21 9 -27 18 -24
32 3 11 0 19 -6 19 -7 0 -9 -4 -6 -10 3 -5 1 -10 -4 -10 -6 0 -9 10 -7 23 3
12 5 27 6 32 1 6 4 2 7 -7 2 -10 10 -18 17 -18z m-3281 3 c-7 -2 -19 -2 -25 0
-7 3 -2 5 12 5 14 0 19 -2 13 -5z m2854 1 c-3 -3 -12 -4 -19 -1 -8 3 -5 6 6 6
11 1 17 -2 13 -5z m553 -14 c6 -11 8 -20 6 -20 -3 0 -10 9 -16 20 -6 11 -8 20
-6 20 3 0 10 -9 16 -20z m-1593 -16 c-3 -3 -12 -4 -19 -1 -8 3 -5 6 6 6 11 1
17 -2 13 -5z m1583 -49 c7 -9 8 -15 2 -15 -5 0 -12 7 -16 15 -3 8 -4 15 -2 15
2 0 9 -7 16 -15z m-4155 -15 c3 -5 1 -10 -4 -10 -6 0 -11 5 -11 10 0 6 2 10 4
10 3 0 8 -4 11 -10z m3725 -10 c18 -12 2 -12 -25 0 -13 6 -15 9 -5 9 8 0 22
-4 30 -9z m117 4 c-3 -3 -12 -4 -19 -1 -8 3 -5 6 6 6 11 1 17 -2 13 -5z m-412
-129 l50 -15 -45 7 c-48 6 -96 21 -70 22 8 0 38 -6 65 -14z m35 -91 l35 -14
-35 6 c-40 7 -76 24 -50 23 8 0 31 -7 50 -15z m181 -14 c6 0 8 -4 5 -9 -3 -5
5 -12 19 -15 14 -4 25 -11 25 -17 0 -6 5 -7 12 -3 7 5 8 3 4 -5 -5 -7 0 -18
10 -26 11 -8 14 -15 7 -15 -6 0 -15 5 -18 10 -4 6 -11 8 -16 5 -13 -8 -37 17
-31 33 2 7 0 11 -5 10 -4 -2 -19 8 -32 21 -18 18 -20 23 -7 18 10 -4 22 -7 27
-7z m-614 -26 c-3 -3 -12 -4 -19 -1 -8 3 -5 6 6 6 11 1 17 -2 13 -5z m353 -19
c0 -12 -29 -3 -34 10 -4 13 -2 14 14 5 11 -6 20 -13 20 -15z m56 -15 c15 -6
24 -13 22 -16 -3 -3 -21 2 -39 10 -39 16 -24 21 17 6z m-135 -38 c-7 -2 -18 1
-23 6 -8 8 -4 9 13 5 13 -4 18 -8 10 -11z m470 -19 c13 -16 12 -17 -3 -4 -10
7 -18 15 -18 17 0 8 8 3 21 -13z m-284 -29 c-3 -3 -12 -4 -19 -1 -8 3 -5 6 6
6 11 1 17 -2 13 -5z m228 -34 c3 -6 -1 -7 -9 -4 -18 7 -21 14 -7 14 6 0 13 -4
16 -10z m-251 -21 c6 -5 -4 -5 -24 1 -18 5 -37 7 -43 3 -6 -4 -7 -1 -2 6 8 13
52 7 69 -10z m286 17 c0 -3 -4 -8 -10 -11 -5 -3 -10 -1 -10 4 0 6 5 11 10 11
6 0 10 -2 10 -4z m-390 -152 c34 -36 34 -37 5 -17 -16 12 -41 33 -55 48 -21
23 -21 26 -5 17 11 -6 36 -27 55 -48z m-148 21 c25 -17 140 -127 136 -130 -4
-4 -88 63 -153 120 -37 33 -26 39 17 10z m872 -6 c-3 -6 0 -16 7 -21 12 -8 11
-9 -1 -5 -18 4 -27 37 -10 37 6 0 8 -5 4 -11z m-214 -45 c0 -2 -9 0 -20 6 -11
6 -20 13 -20 16 0 2 9 0 20 -6 11 -6 20 -13 20 -16z m-694 -41 c-6 -6 -65 31
-70 43 -3 7 13 0 35 -14 21 -14 37 -27 35 -29z m-162 -12 c-7 -8 -35 9 -29 19
4 6 11 5 20 -3 7 -6 11 -14 9 -16z m-557 -23 c-7 -5 -2 -8 14 -8 14 0 29 -4
35 -9 5 -4 30 -14 57 -21 26 -7 47 -17 47 -23 0 -6 3 -7 6 -4 4 3 25 -4 48
-17 22 -13 75 -32 116 -42 41 -10 83 -24 93 -32 15 -13 17 -13 17 1 0 8 -16
25 -35 37 -19 12 -33 25 -30 30 3 5 -1 11 -7 13 -7 3 -3 6 10 6 12 1 30 -7 40
-17 27 -27 62 -34 80 -16 17 18 43 15 50 -5 3 -10 0 -12 -12 -8 -10 4 -15 3
-11 -3 3 -5 34 -9 69 -9 76 1 98 -5 133 -37 32 -30 25 -31 -23 -2 -21 12 -35
17 -31 11 4 -6 -6 -13 -24 -17 -49 -10 -79 -7 -79 7 -1 11 -70 51 -70 40 0 -3
14 -18 31 -34 22 -20 26 -29 15 -29 -9 0 -16 5 -16 11 0 8 -5 7 -15 -1 -13
-11 -14 -10 -9 4 3 9 1 16 -6 16 -6 0 -10 -8 -8 -17 2 -12 14 -19 37 -21 23
-2 35 -9 38 -23 4 -14 14 -19 39 -19 33 0 45 12 24 25 -13 8 6 35 24 35 7 0 6
-3 -2 -8 -21 -14 -3 -42 27 -42 20 0 23 2 11 10 -11 7 -11 10 -2 10 7 0 10 5
6 11 -5 8 6 9 37 4 53 -9 65 -15 49 -25 -8 -5 -2 -10 19 -15 47 -10 52 -29 5
-22 l-39 6 35 -13 c19 -7 38 -11 43 -9 4 2 7 -1 7 -6 0 -6 15 -17 33 -24 17
-8 63 -36 100 -63 90 -64 110 -74 290 -141 181 -68 237 -98 237 -130 0 -13 5
-23 10 -23 6 0 10 -7 10 -15 0 -8 10 -23 22 -35 18 -17 19 -20 5 -20 -19 0
-23 -30 -6 -47 6 -6 9 -17 7 -25 -3 -8 -11 -2 -21 17 -9 18 -17 24 -18 15 -5
-46 -4 -68 3 -64 4 3 8 0 8 -6 0 -6 -8 -10 -17 -8 -27 4 -24 -21 8 -85 6 -13
-2 -8 -20 13 -30 34 -31 34 -22 7 6 -15 18 -41 27 -58 16 -31 15 -32 -5 -26
-24 6 -29 -11 -5 -20 10 -3 14 -13 11 -25 -5 -18 28 -89 45 -96 4 -2 8 -9 8
-15 0 -6 -11 0 -25 13 -14 13 -25 28 -25 34 0 13 -60 89 -66 83 -2 -2 5 -22
16 -45 11 -22 20 -48 20 -56 0 -8 7 -22 17 -31 12 -13 13 -19 4 -25 -10 -6 -8
-17 8 -51 12 -23 21 -53 21 -67 0 -13 8 -44 19 -70 57 -145 66 -308 27 -507
-2 -11 -7 -47 -11 -80 -3 -33 -20 -107 -36 -165 -64 -224 -76 -266 -82 -280
-3 -8 -8 -28 -12 -45 -4 -16 -13 -43 -20 -60 -24 -53 -84 -261 -89 -305 -1
-14 -5 -30 -8 -35 -3 -6 -21 -48 -38 -95 -18 -47 -37 -88 -42 -91 -14 -9 -28
-71 -21 -98 4 -21 3 -24 -8 -13 -19 18 -29 15 -29 -8 0 -11 -4 -20 -10 -20 -5
0 -10 -7 -10 -16 0 -15 -3 -15 -27 1 -16 10 -22 12 -15 4 13 -14 17 -50 5 -48
-22 4 -32 -2 -27 -15 3 -8 -3 -19 -15 -26 -12 -6 -21 -20 -21 -30 0 -11 -4
-20 -10 -20 -5 0 -10 -10 -10 -22 0 -21 0 -21 -14 -2 -11 14 -17 16 -27 7 -6
-6 -19 -9 -28 -5 -13 5 -14 3 -4 -10 16 -19 5 -32 -14 -16 -17 14 -31 2 -15
-14 16 -16 15 -29 0 -25 -8 1 -14 -10 -16 -26 -2 -19 -8 -27 -17 -23 -12 4
-31 -36 -27 -56 3 -12 -16 -10 -23 2 -8 12 -35 -12 -35 -32 0 -10 -3 -9 -10 2
-5 8 -5 19 0 25 5 6 5 17 0 25 -8 12 -10 12 -10 1 0 -8 -7 -11 -20 -8 -22 6
-26 -3 -8 -21 6 -6 9 -14 6 -17 -10 -10 -48 37 -48 59 -1 19 -1 20 -11 3 -6
-9 -7 -27 -3 -40 6 -20 5 -20 -10 -8 -16 13 -17 12 -12 -10 11 -48 14 -119 5
-113 -5 3 -9 14 -9 25 0 18 -2 19 -15 5 -13 -13 -14 -20 -4 -38 10 -18 9 -24
-9 -38 -11 -10 -24 -34 -28 -54 -4 -23 -10 -33 -14 -26 -5 8 -10 9 -14 2 -4
-6 0 -14 8 -19 11 -6 12 -13 6 -23 -8 -12 -10 -13 -10 -1 0 8 -3 11 -7 8 -3
-4 -12 -2 -20 5 -8 6 -13 7 -12 2 4 -21 -2 -26 -16 -14 -8 7 -16 10 -16 6 -1
-3 -2 -12 -3 -18 -1 -7 -7 -12 -14 -10 -9 1 -10 -6 -6 -25 4 -16 3 -25 -1 -21
-4 4 -15 -2 -24 -13 -15 -19 -18 -20 -30 -5 -7 9 -9 16 -4 16 14 0 9 86 -6
100 -11 11 -12 5 -6 -37 4 -33 3 -53 -4 -57 -6 -4 -9 -1 -6 6 3 7 -4 19 -15
26 -12 7 -20 8 -20 2 0 -6 -11 -8 -27 -4 l-27 7 17 -26 c20 -30 7 -37 -14 -8
-8 11 -24 22 -37 26 -31 9 -40 -19 -17 -59 l18 -31 -33 30 c-18 17 -30 24 -26
18 10 -17 -6 -16 -30 2 -28 21 -35 18 -22 -10 6 -13 16 -21 22 -18 6 4 5 -1
-3 -10 -11 -14 -11 -17 0 -17 10 0 10 -3 1 -12 -10 -10 -15 -10 -22 2 -7 11
-10 11 -10 2 0 -7 -4 -10 -10 -7 -15 9 -12 23 6 27 13 3 13 5 0 23 -8 11 -18
16 -22 12 -5 -4 -3 -12 5 -16 9 -6 7 -10 -8 -14 -12 -3 -24 -1 -27 4 -3 5 -13
9 -22 9 -14 -1 -14 -2 3 -12 11 -6 28 -19 38 -29 17 -18 17 -19 0 -19 -10 0
-31 9 -48 20 -44 29 -52 24 -16 -10 28 -28 29 -30 9 -26 -13 2 -31 7 -40 11
-14 5 -18 2 -18 -14 0 -14 -5 -19 -16 -14 -12 4 -14 0 -8 -22 6 -24 4 -27 -10
-22 -9 4 -16 1 -16 -6 0 -7 -10 -18 -22 -26 -21 -13 -22 -13 -10 2 14 17 8 57
-9 57 -5 0 -9 7 -9 15 0 20 -6 19 -30 -5 -11 -11 -20 -29 -20 -40 0 -23 -15
-27 -23 -6 -3 8 -1 17 6 20 9 5 9 7 0 12 -7 3 -13 18 -14 32 0 27 0 27 -11 5
-12 -26 -44 -32 -34 -7 3 8 2 12 -4 9 -5 -3 -30 6 -56 21 -38 22 -48 25 -55
13 -6 -10 -10 -5 -15 21 -6 28 -9 31 -14 15 -4 -11 -6 -33 -4 -48 2 -16 -1
-25 -6 -22 -6 4 -10 14 -10 23 0 10 -9 23 -20 30 -11 7 -20 8 -20 3 0 -5 7
-11 15 -15 17 -6 21 -36 5 -36 -5 0 -10 4 -10 10 0 5 -8 6 -17 3 -12 -5 -15
-2 -10 10 4 11 2 14 -9 10 -7 -3 -14 -14 -14 -24 0 -10 -5 -19 -11 -19 -5 0
-7 5 -4 10 3 6 -1 13 -10 16 -9 4 -14 13 -11 20 3 8 1 14 -4 14 -6 0 -10 7
-10 15 0 8 -7 15 -15 15 -12 0 -13 -5 -4 -26 5 -15 8 -29 5 -31 -6 -7 -36 28
-36 43 0 8 -4 14 -10 14 -20 0 -9 -29 21 -60 17 -17 28 -34 24 -38 -4 -4 -10
-1 -12 6 -3 6 -11 12 -19 12 -8 0 -14 7 -14 16 0 10 -5 14 -15 10 -14 -5 -45
32 -59 69 -2 6 -7 7 -11 3 -5 -5 -3 -19 3 -33 6 -14 8 -25 3 -25 -11 0 -21 25
-21 52 0 13 -5 18 -14 15 -7 -3 -19 0 -25 6 -6 6 -11 7 -11 2 0 -15 13 -31 30
-38 12 -4 12 -6 -2 -6 -9 -1 -22 7 -28 17 -8 11 -13 13 -16 5 -3 -7 -11 -10
-19 -7 -7 3 -15 0 -18 -8 -2 -7 -2 -1 0 15 5 28 -11 38 -21 12 -3 -8 -11 -15
-17 -15 -7 0 -5 8 6 20 17 19 17 21 1 33 -10 7 -16 17 -15 22 4 18 -13 45 -28
45 -9 0 -13 6 -9 15 3 9 0 15 -8 15 -8 0 -21 2 -29 5 -8 4 -14 0 -14 -9 0 -8
6 -12 14 -9 7 3 13 -2 13 -11 0 -9 5 -16 11 -16 5 0 7 -5 3 -12 -4 -7 -3 -8 4
-4 7 4 18 4 24 -1 8 -4 1 -10 -21 -14 -36 -7 -91 6 -91 23 0 5 -4 7 -9 4 -5
-3 -11 3 -14 14 -8 29 -53 47 -79 31 -27 -17 -35 -6 -13 19 14 16 15 20 3 20
-8 0 -23 -7 -34 -15 -22 -17 -38 -20 -29 -5 3 5 1 18 -4 27 -6 10 -11 12 -11
6 0 -7 -7 -13 -16 -13 -12 0 -15 6 -10 24 4 18 1 25 -14 29 -11 3 -20 0 -20
-6 0 -7 -9 -1 -19 12 -13 17 -23 22 -39 16 -13 -4 -22 -2 -22 4 0 6 -6 8 -13
5 -8 -3 -13 3 -13 16 0 12 7 20 17 20 9 0 19 7 23 15 7 19 -8 19 -39 -1 -13
-9 -32 -14 -41 -12 -12 2 -2 11 29 27 26 13 46 25 44 27 -1 2 -16 10 -32 18
l-30 16 40 1 c22 0 34 3 28 6 -16 6 -17 33 -2 33 5 0 8 -4 5 -9 -3 -5 5 -12
19 -15 14 -4 25 -11 25 -16 0 -6 7 -10 17 -10 15 0 15 1 0 18 -15 16 -15 19 3
30 26 16 33 15 27 -2 -4 -11 -1 -13 10 -9 10 4 14 2 10 -4 -4 -6 5 -19 19 -28
20 -13 28 -14 34 -5 6 10 12 9 29 -2 11 -8 18 -18 13 -23 -4 -5 -1 -5 7 0 9 5
18 2 26 -8 7 -9 22 -18 33 -20 12 -2 24 -6 28 -10 12 -11 -18 -38 -35 -32 -12
5 -12 2 3 -12 13 -13 20 -15 23 -5 3 6 11 12 18 12 7 0 16 10 20 23 7 21 8 21
12 -6 3 -22 8 -27 21 -22 19 8 21 8 80 4 23 -2 42 -8 42 -14 0 -13 40 -38 48
-30 4 4 -1 11 -11 16 -9 6 -17 14 -17 20 0 10 41 -10 52 -27 4 -6 48 -11 100
-13 51 -1 104 -5 118 -8 21 -5 23 -3 13 8 -21 22 -16 42 6 29 20 -10 45 -5 69
13 9 8 8 13 -5 23 -16 13 -15 14 10 8 22 -5 26 -3 21 10 -8 20 0 20 31 0 15
-10 25 -12 25 -5 0 6 -4 11 -9 11 -5 0 -14 13 -21 30 -7 16 -21 32 -31 35 -11
4 -17 11 -13 16 3 5 9 7 14 4 4 -3 6 4 3 14 -3 11 -12 20 -21 20 -10 -1 -48 7
-87 15 -38 9 -120 28 -181 42 -172 39 -267 92 -266 150 0 15 -9 35 -19 45 -11
11 -19 28 -19 39 0 15 -7 20 -26 20 -15 0 -33 8 -40 18 -17 21 -17 32 -3 32 7
0 18 8 25 18 11 14 15 14 23 3 6 -9 11 -10 15 -2 9 14 106 14 142 1 14 -6 54
-15 88 -20 33 -5 84 -15 111 -21 28 -7 66 -13 85 -14 389 -30 436 -31 420 -5
-7 12 -12 12 -22 2 -24 -24 -138 -7 -138 21 0 6 -9 2 -20 -8 -18 -17 -26 -17
-93 -6 -114 20 -137 30 -137 62 0 15 4 39 10 53 8 22 14 25 47 21 21 -2 68 -4
105 -4 64 -1 68 -3 74 -26 7 -30 12 -31 39 -5 17 16 28 19 46 12 13 -4 33 -8
44 -8 11 1 28 -9 38 -21 15 -19 22 -21 39 -12 14 8 27 8 42 1 11 -6 29 -13 40
-16 15 -5 17 -13 12 -49 l-7 -43 96 -1 c100 0 127 -11 140 -54 4 -11 14 -19
23 -19 15 0 15 -2 2 -10 -23 -15 44 -68 77 -62 22 4 24 9 19 34 -5 26 -3 29
11 24 10 -4 14 -4 10 0 -4 4 -1 14 5 22 10 11 14 7 25 -25 l13 -38 -5 52 c-2
29 0 55 5 58 5 3 9 13 9 23 1 58 15 132 25 132 6 0 5 6 -4 13 -17 14 -25 47
-12 47 5 0 9 14 10 30 0 17 -3 30 -8 30 -5 0 -7 6 -4 13 2 7 -8 24 -23 37 -24
21 -25 25 -10 28 9 2 17 9 17 15 0 7 5 6 11 -3 8 -11 9 -8 5 15 l-6 30 16 -30
c10 -16 27 -38 40 -47 12 -10 36 -46 53 -80 28 -55 31 -58 33 -32 0 16 0 40
-1 54 -1 20 0 22 9 10 9 -12 10 -10 4 10 -4 14 -8 41 -9 60 -1 20 -7 45 -12
55 -13 25 -33 88 -33 103 0 6 -15 35 -33 64 -31 48 -68 123 -117 231 -36 79
-76 107 -50 35 6 -18 14 -88 16 -156 2 -67 11 -148 20 -180 9 -31 18 -67 21
-80 3 -12 9 -25 14 -28 16 -9 10 -34 -6 -28 -13 5 -17 -2 -17 -26 0 -3 3 -16
6 -30 l7 -25 -20 24 c-18 20 -22 21 -27 7 -3 -9 -10 -16 -16 -16 -5 0 -6 6 -2
13 5 9 4 9 -6 0 -10 -9 -18 -8 -38 5 -15 10 -23 11 -19 5 5 -7 4 -13 -2 -13
-6 0 -11 4 -11 9 0 5 -14 13 -31 16 -18 4 -43 19 -56 34 -24 25 -25 21 -7 -24
4 -11 2 -13 -10 -9 -8 3 -18 15 -22 26 -3 11 -8 17 -11 14 -11 -11 20 -66 36
-66 24 0 58 -27 48 -37 -5 -4 -15 1 -23 11 -7 11 -17 17 -20 13 -4 -3 -16 -1
-28 5 -11 7 -28 11 -37 10 -9 -2 -19 5 -23 14 -5 13 -4 14 7 6 8 -7 16 -10 19
-7 8 8 -3 55 -15 62 -6 4 -8 0 -4 -10 3 -9 2 -19 -4 -22 -5 -4 -9 -3 -8 2 1 4
-1 16 -5 25 -7 14 -12 16 -28 7 -15 -8 -19 -8 -13 1 4 6 9 35 10 63 2 36 1 46
-5 32 -5 -11 -9 -15 -9 -8 -1 6 -9 9 -20 6 -13 -3 -20 2 -26 19 -6 20 -8 21
-12 5 -3 -12 8 -30 34 -52 28 -25 33 -34 21 -35 -10 0 -18 3 -18 8 -1 23 -18
32 -43 23 -17 -7 -27 -7 -27 -1 0 6 7 10 15 10 8 0 15 5 15 10 0 6 -5 10 -11
10 -6 0 -9 6 -6 14 3 8 1 17 -6 19 -7 2 0 10 15 17 22 10 26 18 22 36 -5 19 1
25 39 42 46 20 136 82 137 93 0 9 -80 18 -219 25 -121 5 -162 0 -246 -31 -16
-5 -17 -5 -5 4 12 8 12 11 -3 17 -9 3 -17 12 -17 20 0 8 -10 14 -24 14 -17 0
-39 17 -72 56 -85 99 -110 124 -123 124 -6 0 -28 9 -49 19 -20 10 -41 20 -47
21 -33 8 -46 76 -25 125 18 42 19 44 30 110 10 56 10 61 -11 77 -23 20 -44 24
-34 8 3 -5 -3 -10 -14 -10 -12 0 -21 5 -21 11 0 6 -23 9 -62 8 -58 -3 -66 -6
-100 -41 -21 -21 -38 -42 -38 -47 0 -6 -9 -26 -21 -45 -12 -20 -18 -36 -15
-36 8 0 -58 -65 -215 -210 -179 -167 -194 -183 -220 -239 -12 -28 -26 -51 -30
-51 -4 0 -13 -17 -20 -37 -6 -21 -20 -49 -29 -63 -9 -14 -20 -32 -23 -40 -4
-11 -6 -11 -6 4 -1 12 -6 16 -16 13 -8 -4 -17 -2 -20 4 -4 5 1 12 10 16 10 3
21 0 26 -8 6 -11 9 -8 9 9 0 12 -4 22 -10 22 -5 0 -10 7 -10 15 0 8 -7 15 -15
15 -9 0 -15 9 -15 25 0 16 -6 25 -16 25 -14 0 -14 3 -3 16 7 8 21 13 32 10 14
-3 17 -1 13 11 -5 13 -4 14 9 3 8 -7 23 -9 32 -5 16 6 16 8 -4 15 -21 9 -30
50 -10 50 4 0 5 5 1 11 -3 6 -1 14 5 18 7 5 5 14 -9 28 -13 15 -16 23 -7 26 9
3 8 13 -5 38 -9 19 -19 47 -22 62 -5 20 -14 29 -35 33 -16 4 -42 19 -57 36
-24 24 -26 30 -14 38 13 8 12 10 -2 10 -10 0 -18 -4 -18 -10 0 -5 -7 -10 -15
-10 -17 0 -20 17 -5 22 7 2 0 24 -15 52 -14 27 -24 55 -21 62 3 8 -1 17 -8 21
-19 12 -26 39 -13 53 9 10 8 11 -8 7 -13 -4 -32 4 -55 24 -31 26 -32 29 -12
29 12 0 22 5 22 10 0 6 -6 10 -14 10 -7 0 -16 9 -19 20 -3 13 0 20 9 20 8 0
14 7 14 15 0 8 -6 15 -14 15 -15 0 -17 65 -2 89 5 8 4 16 -4 21 -15 9 13 70
33 70 8 0 7 4 -3 10 -12 8 -12 11 3 28 9 10 17 28 17 39 0 12 11 25 28 33 l27
13 -25 8 c-14 4 -18 7 -9 8 8 1 24 7 35 15 18 14 18 15 -6 24 l-25 10 28 11
c16 6 34 11 40 12 7 0 3 5 -8 10 -15 7 -13 8 12 3 23 -4 34 -1 41 12 5 9 22
19 38 21 77 9 117 7 108 -8 -4 -7 0 -9 14 -5 76 25 150 10 233 -46 15 -10 62
-32 104 -49 83 -33 160 -40 278 -27 52 6 82 1 137 -19 8 -4 20 -5 25 -3 29 9
103 5 127 -7 27 -13 29 -30 5 -60 -5 -7 -7 -20 -3 -28 3 -9 2 -13 -4 -10 -13
8 -25 -24 -14 -35 5 -5 20 -7 33 -3 17 4 19 8 9 14 -9 6 -7 9 8 9 14 0 37 20
66 58 71 91 118 161 118 176 0 8 7 16 15 20 8 3 15 11 15 19 0 15 44 57 60 57
6 0 10 4 10 8 0 5 12 15 26 23 l26 14 -23 10 c-25 10 -31 34 -14 48 6 6 6 10
-2 14 -7 2 -13 11 -13 19 0 8 -5 14 -11 14 -6 0 -8 9 -4 20 5 16 2 20 -14 20
-12 0 -21 6 -21 16 0 9 5 12 12 8 7 -4 8 -3 4 4 -4 7 -14 12 -22 12 -8 0 -14
9 -14 20 0 11 -3 20 -8 20 -4 0 -13 14 -20 30 -8 17 -18 28 -22 25 -12 -7 -56
35 -64 63 -4 12 -12 22 -17 22 -5 0 -9 -10 -9 -22 0 -19 -2 -20 -10 -8 -5 8
-15 15 -22 15 -7 0 -18 11 -25 25 -12 24 -13 24 -13 3 l0 -21 -46 24 c-26 14
-49 22 -52 19 -3 -2 -12 1 -20 7 -8 7 -20 13 -26 13 -6 0 -45 7 -86 14 -55 10
-70 16 -55 22 17 6 16 8 -12 14 -37 8 -42 19 -15 34 13 8 9 9 -18 5 -19 -3
-41 -8 -48 -10 -21 -6 -2 16 22 27 15 7 8 8 -26 4 -26 -4 -49 -2 -52 4 -4 6
-14 7 -24 4 -9 -3 -14 -3 -10 2 4 4 -2 16 -14 26 -11 11 -16 19 -10 19 7 0 12
4 12 10 0 6 -9 6 -26 0 -14 -6 -36 -10 -50 -10 -13 0 -24 -5 -24 -11 0 -6 -13
-9 -33 -6 -36 5 -73 -15 -62 -32 4 -7 -3 -11 -17 -10 -13 0 -17 3 -10 6 20 8
13 25 -8 18 -15 -5 -18 -3 -14 9 3 9 14 16 23 17 10 0 11 2 4 6 -10 3 -10 8 1
19 8 8 17 14 21 14 4 0 13 7 21 15 9 8 11 15 5 15 -24 0 -10 38 19 50 17 7 30
18 30 25 0 13 83 31 99 21 12 -8 41 3 41 15 0 18 24 35 44 32 34 -6 48 10 37
40 -7 17 -7 27 -1 27 5 0 7 7 4 15 -4 8 -1 22 6 30 9 10 9 15 1 15 -6 0 -11 5
-11 10 0 6 10 10 23 10 18 0 19 2 7 11 -11 8 -12 12 -2 16 6 2 12 12 12 21 0
38 25 83 50 89 14 3 31 10 37 15 7 6 19 8 27 5 8 -3 17 0 19 7 3 7 27 19 54
26 26 7 52 20 57 28 5 8 11 10 15 5 3 -6 26 -13 51 -16 35 -5 40 -4 21 4 -13
5 -22 11 -20 13 7 6 79 -6 75 -13 -2 -3 12 -6 31 -7 25 0 30 2 19 8 -24 14
-19 28 10 28 14 0 23 4 20 9 -11 17 45 22 70 7 12 -9 25 -12 28 -8 3 6 120 -8
144 -17 1 -1 5 -1 8 0 4 0 10 -5 14 -11 4 -7 14 -10 21 -8 9 3 2 11 -19 22
-18 9 -32 22 -30 28 7 19 39 17 59 -3 23 -23 48 -27 29 -4 -18 21 -3 19 27 -5
14 -11 33 -20 42 -19 11 0 9 3 -6 9 -22 9 -46 43 -38 54 3 3 2 4 -1 1 -7 -4
-34 19 -34 30 0 3 5 3 12 -1 7 -5 9 -2 6 7 -5 13 1 13 38 5 26 -6 38 -13 31
-18z m559 -5 c-3 -4 4 -13 16 -20 l23 -12 -25 -1 c-36 0 -70 11 -70 22 0 6 7
8 15 4 8 -3 15 -1 15 4 0 6 8 10 17 10 9 0 13 -3 9 -7z m1224 -18 c13 -14 21
-25 18 -25 -2 0 -15 11 -28 25 -13 14 -21 25 -18 25 2 0 15 -11 28 -25z
m-1307 8 c-7 -2 -19 -2 -25 0 -7 3 -2 5 12 5 14 0 19 -2 13 -5z m1202 -25 l30
-32 -32 23 c-34 23 -50 41 -36 41 4 0 22 -15 38 -32z m-3928 -30 c-3 -7 -5 -2
-5 12 0 14 2 19 5 13 2 -7 2 -19 0 -25z m72 -12 c-14 -15 -22 0 -13 26 7 22 7
22 14 3 4 -11 4 -24 -1 -29z m1925 35 c4 -5 -3 -7 -14 -4 -23 6 -26 13 -6 13
8 0 17 -4 20 -9z m51 -1 c3 -5 -1 -10 -9 -10 -9 0 -16 5 -16 10 0 6 4 10 9 10
6 0 13 -4 16 -10z m702 4 c-3 -3 -12 -4 -19 -1 -8 3 -5 6 6 6 11 1 17 -2 13
-5z m88 -14 c15 -6 11 -8 -18 -8 -21 1 -40 5 -43 10 -7 10 35 9 61 -2z m-338
-20 c14 -11 20 -20 13 -20 -6 0 -23 9 -37 20 -14 11 -20 20 -13 20 6 0 23 -9
37 -20z m-740 -6 c-3 -3 -12 -4 -19 -1 -8 3 -5 6 6 6 11 1 17 -2 13 -5z m958
-4 c3 -5 1 -10 -4 -10 -6 0 -11 5 -11 10 0 6 2 10 4 10 3 0 8 -4 11 -10z
m-2661 -52 c-3 -24 -7 -45 -10 -47 -7 -8 -21 12 -27 39 -5 20 -1 28 16 37 12
6 23 11 24 12 1 0 0 -18 -3 -41z m-80 -44 c3 -8 2 -12 -4 -9 -6 3 -10 10 -10
16 0 14 7 11 14 -7z m2871 -34 c3 -5 1 -10 -4 -10 -6 0 -11 5 -11 10 0 6 2 10
4 10 3 0 8 -4 11 -10z m574 -159 c13 -12 12 -13 -7 -7 -32 10 -27 -1 8 -19 17
-9 30 -20 30 -25 0 -12 -62 24 -85 50 -17 19 -17 20 0 20 17 0 17 1 -1 23 -16
19 -15 19 11 -3 16 -14 36 -31 44 -39z m141 -81 c12 -8 12 -10 -5 -10 -11 0
-27 5 -35 10 -12 8 -12 10 5 10 11 0 27 -5 35 -10z m-2513 -156 c-3 -3 -12 -4
-19 -1 -8 3 -5 6 6 6 11 1 17 -2 13 -5z m195 -707 c4 -6 25 -11 47 -11 23 0
41 -3 41 -8 0 -4 18 -8 40 -8 37 0 46 -7 41 -33 -1 -5 8 -6 19 -2 17 5 20 2
20 -23 0 -24 -5 -30 -37 -40 -30 -9 -40 -9 -53 2 -8 8 -37 14 -65 14 -91 0
-155 16 -155 39 0 10 -6 13 -16 9 -8 -3 -12 -2 -9 4 3 6 -1 10 -10 10 -9 0
-29 10 -43 21 l-27 22 47 -5 c25 -3 70 -17 99 -31 49 -25 53 -25 65 -9 7 9 10
19 8 22 -3 2 -8 -1 -12 -7 -5 -8 -15 -6 -32 7 -14 11 -19 20 -12 20 6 0 12 5
12 11 0 5 -4 8 -9 4 -5 -3 -13 0 -17 6 -5 9 1 10 22 5 16 -4 32 -13 36 -19z
m243 -625 c32 -22 33 -82 5 -192 -21 -83 -57 -112 -94 -75 -8 8 -19 15 -25 15
-5 0 -13 9 -16 21 -4 11 -18 25 -31 31 -35 16 -30 75 10 113 30 28 95 75 105
75 6 0 11 5 11 10 0 12 20 13 35 2z m709 -648 c8 -21 8 -21 -14 -27 -25 -7
-35 8 -18 27 17 20 24 20 32 0z m-61 -25 c-4 -12 0 -25 8 -31 12 -8 11 -9 -1
-5 -17 4 -27 57 -12 57 6 0 8 -9 5 -21z m-340 -86 c-26 -10 -12 -24 20 -21 22
2 31 -1 29 -10 -1 -8 5 -12 15 -11 10 1 26 -1 35 -5 9 -4 50 -6 92 -3 80 4
121 -10 156 -54 9 -11 30 -20 52 -21 21 -2 38 -6 38 -10 0 -15 39 -8 48 8 8
15 10 15 15 0 4 -10 3 -15 -2 -12 -5 3 -12 -1 -15 -10 -4 -10 -1 -14 6 -11 7
2 23 0 35 -4 14 -5 23 -4 25 3 3 7 14 1 26 -12 12 -13 22 -20 22 -16 0 4 10
-2 22 -13 11 -11 24 -18 29 -16 4 3 14 -8 22 -25 16 -31 10 -39 -11 -18 -9 9
-12 8 -12 -5 0 -10 -8 -17 -20 -17 -11 0 -20 4 -20 9 0 5 -17 15 -37 22 -21 6
-47 16 -58 22 -11 6 -26 12 -34 13 -18 3 -31 25 -24 39 3 5 0 5 -7 -2 -7 -6
-19 -9 -28 -6 -10 5 -13 2 -8 -6 5 -7 1 -18 -10 -26 -18 -13 -52 -13 -104 0
-14 3 -43 8 -65 10 -97 9 -131 19 -172 52 -23 19 -47 32 -53 28 -5 -3 -22 3
-36 14 -14 11 -42 23 -63 27 -41 7 -121 50 -121 64 0 13 46 13 93 -1 22 -6 46
-7 55 -3 10 4 23 6 30 5 6 -1 12 5 12 14 0 8 8 15 18 14 10 0 12 -3 5 -6z
m837 -188 c0 -5 -5 -3 -10 5 -5 8 -10 20 -10 25 0 6 5 3 10 -5 5 -8 10 -19 10
-25z m-1192 -5 c43 -20 54 -46 32 -80 -8 -13 -14 -13 -52 0 -45 16 -69 48 -61
81 7 24 27 24 81 -1z m-118 -14 c0 -2 -7 -6 -15 -10 -8 -3 -15 -1 -15 4 0 6 7
10 15 10 8 0 15 -2 15 -4z m300 -27 c94 -32 95 -32 98 -74 5 -54 -8 -62 -70
-42 -29 9 -73 23 -98 30 -40 12 -45 17 -48 45 -4 40 14 75 36 69 10 -3 46 -15
82 -28z m-442 -111 c8 -8 15 -8 26 1 9 7 21 11 28 8 8 -3 6 -6 -5 -6 -10 -1
-16 -5 -13 -10 4 -5 0 -11 -6 -14 -10 -3 -10 -11 -1 -35 6 -18 8 -32 4 -32 -8
0 -71 81 -71 92 0 12 24 10 38 -4z m2322 2 c0 -5 -2 -10 -4 -10 -3 0 -8 5 -11
10 -3 6 -1 10 4 10 6 0 11 -4 11 -10z m-2506 -71 c-3 -5 1 -21 10 -34 16 -24
7 -43 -14 -30 -5 3 -10 1 -10 -4 0 -6 -10 -11 -22 -11 -18 0 -20 -2 -8 -10 9
-6 18 -6 24 0 13 13 46 13 46 0 0 -5 -8 -6 -17 -3 -13 5 -15 3 -8 -13 13 -32
6 -67 -20 -94 -14 -14 -25 -34 -25 -44 0 -9 -4 -14 -10 -11 -15 9 -12 19 13
45 12 14 21 26 20 27 -1 2 0 10 4 19 3 8 0 21 -7 27 -10 10 -12 8 -6 -7 6 -17
2 -18 -39 -11 -31 4 -51 2 -61 -5 -7 -7 -23 -10 -33 -7 -16 4 -18 1 -12 -17
12 -30 37 -32 45 -2 5 21 10 23 33 17 14 -4 27 -15 29 -24 2 -13 -3 -16 -21
-11 -39 10 -41 -16 -4 -48 19 -17 27 -28 18 -25 -9 3 -22 1 -30 -3 -11 -7 -10
-10 3 -15 10 -4 34 3 56 15 29 17 38 27 35 41 -4 15 0 19 18 19 24 -1 24 -1 4
-16 -20 -16 -20 -16 2 -10 12 4 24 2 29 -5 4 -8 3 -9 -5 -5 -7 5 -28 -3 -49
-16 -33 -22 -52 -31 -117 -53 -20 -7 -20 -6 -1 9 20 16 20 16 0 16 -16 0 -17
2 -4 10 10 7 11 10 2 10 -7 0 -17 -11 -22 -25 -5 -14 -12 -25 -14 -25 -3 0 -2
8 1 17 5 12 2 15 -10 10 -9 -3 -17 -2 -17 3 0 13 34 30 59 30 12 0 21 5 21 10
0 6 -7 10 -15 10 -8 0 -15 6 -15 14 0 25 -71 36 -97 14 -9 -7 -11 -4 -10 11 1
17 6 19 27 14 l25 -6 -25 22 c-17 16 -20 21 -7 17 27 -9 20 2 -14 20 -34 17
-30 29 14 39 21 6 27 4 27 -8 0 -9 5 -19 12 -23 8 -5 9 0 6 14 -4 12 -2 20 3
16 5 -3 9 -12 9 -20 0 -16 16 -19 25 -4 3 5 19 7 36 3 23 -4 28 -3 24 9 -5 13
-48 40 -67 42 -16 2 -21 18 -8 26 20 13 33 13 25 0 -3 -6 1 -7 10 -4 10 4 15
2 13 -6 -2 -8 8 -19 22 -26 30 -16 40 -9 14 11 -15 11 -16 15 -4 15 8 1 2 7
-15 15 -17 7 -23 14 -14 14 9 1 24 10 35 22 12 13 27 19 41 16 13 -2 23 0 23
5 0 5 5 6 10 3 6 -4 8 -11 4 -16z m-189 -50 c10 -11 -15 -30 -47 -35 -30 -5
-36 -3 -40 14 -3 12 -1 23 6 25 13 5 75 2 81 -4z m-1 -203 c-3 -9 -13 -12 -27
-8 -21 6 -21 6 3 13 14 4 26 7 27 8 1 1 0 -5 -3 -13z m261 -58 c13 -13 -33
-14 -50 -1 -18 12 -17 13 13 10 18 -2 34 -6 37 -9z m-105 -27 c0 -10 -9 -21
-21 -24 -17 -5 -18 -3 -7 10 11 14 10 16 -12 10 -63 -17 -72 -16 -30 2 58 25
70 25 70 2z m-55 -31 c-3 -5 -18 -9 -33 -9 l-27 1 30 8 c17 4 31 8 33 9 2 0 0
-3 -3 -9z m53 -37 c4 -15 -34 -18 -43 -3 -4 6 -15 6 -31 0 -32 -12 -44 -13
-44 -1 0 22 110 25 118 4z m-298 -13 c0 -5 -4 -10 -10 -10 -5 0 -10 5 -10 10
0 6 5 10 10 10 6 0 10 -4 10 -10z m756 -5 c-6 -15 2 -19 42 -17 14 1 22 -4 19
-11 -4 -13 -56 -11 -71 3 -9 9 -1 40 10 40 3 0 4 -7 0 -15z m1601 -47 c-3 -7
-5 -2 -5 12 0 14 2 19 5 13 2 -7 2 -19 0 -25z m-27 1 c0 -6 -4 -7 -10 -4 -5 3
-10 11 -10 16 0 6 5 7 10 4 6 -3 10 -11 10 -16z m-1153 -5 c-3 -3 -12 -4 -19
-1 -8 3 -5 6 6 6 11 1 17 -2 13 -5z m1213 -19 c-7 -9 -15 -13 -17 -11 -7 7 7
26 19 26 6 0 6 -6 -2 -15z m-1990 -59 c0 -2 -7 -7 -16 -10 -8 -3 -12 -2 -9 4
6 10 25 14 25 6z m-940 -61 c0 -15 -6 -25 -14 -25 -19 0 -27 25 -13 39 18 18
27 13 27 -14z m831 -28 c-10 -9 -11 -8 -5 6 3 10 9 15 12 12 3 -3 0 -11 -7
-18z m319 8 c17 -20 -11 -31 -37 -15 -17 11 -17 11 2 6 20 -6 20 -6 1 9 -20
15 -19 15 1 15 11 0 26 -7 33 -15z m-1158 -32 c8 -40 -4 -83 -22 -83 -16 0
-18 6 -14 38 3 20 7 43 10 50 5 18 22 15 26 -5z m2443 -73 c3 -5 1 -10 -4 -10
-6 0 -11 5 -11 10 0 6 2 10 4 10 3 0 8 -4 11 -10z m115 -30 c14 -9 22 -50 10
-50 -6 0 -9 4 -6 8 2 4 0 14 -5 22 -8 13 -10 13 -18 0 -7 -10 -9 -4 -6 20 4
45 6 49 12 25 3 -11 9 -22 13 -25z m-2592 -168 c-9 -58 -23 -110 -29 -116 -9
-8 -10 -4 -4 19 4 17 8 66 10 110 2 44 9 93 16 109 13 29 14 29 19 6 3 -13 -2
-71 -12 -128z m1452 133 c0 -8 -2 -15 -4 -15 -2 0 -6 7 -10 15 -3 8 -1 15 4
15 6 0 10 -7 10 -15z m180 -86 c0 -19 -19 -7 -46 28 l-28 37 37 -28 c20 -16
37 -32 37 -37z m270 33 c0 -4 -9 -8 -20 -9 -16 -1 -17 1 -7 12 12 13 27 11 27
-3z m30 -21 c0 -6 -4 -13 -10 -16 -5 -3 -10 1 -10 9 0 9 5 16 10 16 6 0 10 -4
10 -9z m30 -29 c0 -7 -4 -10 -10 -7 -5 3 -10 16 -10 28 0 18 2 19 10 7 5 -8
10 -21 10 -28z m280 22 c0 -2 -7 -4 -15 -4 -8 0 -15 4 -15 10 0 5 7 7 15 4 8
-4 15 -8 15 -10z m-457 -22 c-3 -12 -9 -22 -14 -22 -5 0 -3 11 3 25 13 30 20
28 11 -3z m472 -2 l20 -9 -20 0 c-11 0 -27 4 -35 9 -13 9 -13 10 0 9 8 0 24
-4 35 -9z m-145 -14 c0 -3 -4 -8 -10 -11 -5 -3 -10 -1 -10 4 0 6 5 11 10 11 6
0 10 -2 10 -4z m430 -16 c0 -5 -8 -10 -17 -10 -15 0 -16 2 -3 10 19 12 20 12
20 0z"/>
<path d="M6750 9943 c0 -12 7 -24 16 -27 9 -4 14 -13 10 -22 -3 -8 -2 -12 4
-9 16 10 12 30 -10 55 -19 22 -20 22 -20 3z"/>
<path d="M8600 8701 c0 -6 4 -13 10 -16 6 -3 7 1 4 9 -7 18 -14 21 -14 7z"/>
<path d="M8766 8645 c10 -8 34 -17 52 -21 17 -3 32 -10 32 -15 0 -12 58 -40
94 -46 22 -3 11 5 -39 30 -127 63 -180 83 -139 52z"/>
<path d="M9445 8541 c-3 -5 4 -13 16 -16 28 -9 33 -2 9 13 -11 6 -21 8 -25 3z"/>
<path d="M9148 8523 c7 -3 16 -2 19 1 4 3 -2 6 -13 5 -11 0 -14 -3 -6 -6z"/>
<path d="M7770 8260 c0 -5 6 -10 14 -10 8 0 18 5 21 10 3 6 -3 10 -14 10 -12
0 -21 -4 -21 -10z"/>
<path d="M10240 8040 c0 -5 5 -10 11 -10 5 0 7 5 4 10 -3 6 -8 10 -11 10 -2 0
-4 -4 -4 -10z"/>
<path d="M7968 7953 c7 -3 16 -2 19 1 4 3 -2 6 -13 5 -11 0 -14 -3 -6 -6z"/>
<path d="M8960 7613 c0 -7 -6 -13 -13 -13 -19 0 -53 -31 -61 -56 -4 -12 -15
-29 -26 -39 -11 -10 -20 -25 -20 -33 0 -8 -6 -12 -14 -9 -9 4 -15 -1 -15 -11
0 -9 -1 -24 -1 -32 -2 -36 9 -167 15 -182 5 -14 19 -18 55 -18 32 0 52 -5 61
-16 10 -13 25 -15 66 -11 47 5 57 3 80 -19 15 -13 29 -23 32 -21 54 28 62 30
74 18 10 -11 8 -12 -10 -6 -14 4 -23 2 -23 -4 0 -18 -43 -56 -48 -43 -2 7 -8
10 -13 6 -5 -3 -9 3 -9 13 -1 17 -1 17 -15 -1 -7 -10 -18 -15 -24 -11 -6 3
-11 1 -11 -5 0 -6 -6 -10 -12 -9 -27 3 -37 -2 -32 -16 4 -8 10 -15 15 -15 5 0
46 -27 91 -61 83 -61 118 -80 198 -105 59 -18 81 -18 58 0 -10 7 -15 15 -12
18 3 3 -12 9 -32 13 -21 3 -33 10 -28 13 16 12 15 32 -3 39 -10 4 -31 17 -46
30 -16 13 -35 23 -43 23 -9 0 -12 5 -9 10 3 6 2 10 -2 10 -5 0 -14 9 -20 20
-17 26 -6 53 19 47 20 -6 44 26 33 43 -3 6 2 10 11 10 10 0 14 -3 10 -7 -8 -9
136 -38 234 -48 41 -4 81 -11 90 -15 8 -4 28 -14 44 -21 15 -8 32 -24 37 -36
5 -13 13 -23 19 -23 6 0 8 6 4 13 -4 6 1 5 12 -4 10 -9 30 -20 44 -24 14 -4
36 -16 49 -26 13 -11 28 -19 33 -19 4 0 26 -11 48 -25 56 -35 60 -31 15 16
l-40 41 45 -6 c38 -6 42 -5 30 6 -8 7 -23 26 -33 41 -41 64 -161 185 -191 193
-14 3 -27 12 -30 20 -3 8 -12 14 -20 14 -7 0 -16 6 -19 14 -3 8 -19 17 -36 21
-17 4 -31 11 -31 16 0 5 -11 9 -23 9 -13 0 -35 10 -48 21 l-24 22 28 -5 c21
-4 27 -2 23 8 -4 11 9 14 65 14 39 0 68 -3 65 -8 -2 -4 14 -8 36 -8 22 -1 45
-7 51 -13 6 -6 17 -11 25 -11 11 0 12 3 3 14 -10 12 -8 13 10 9 15 -4 20 -3
15 5 -14 24 13 11 50 -23 43 -40 49 -42 64 -17 10 15 10 14 5 -5 -6 -20 -3
-22 33 -20 l40 1 -39 25 c-26 17 -35 28 -26 33 9 6 9 8 0 8 -19 0 -28 -4 -26
-12 5 -14 -53 4 -73 23 -11 10 -28 19 -37 19 -9 0 -19 5 -22 10 -3 6 -19 10
-36 10 -19 0 -29 5 -29 15 0 8 -4 16 -10 16 -37 5 -70 20 -65 30 4 5 11 9 16
9 6 0 8 -4 5 -9 -4 -5 3 -7 14 -4 19 5 19 6 -4 24 -13 11 -27 19 -30 19 -3 0
-22 11 -42 25 -38 26 -70 34 -58 14 3 -6 -8 -4 -24 5 -34 18 -77 21 -67 6 3
-5 2 -10 -4 -10 -5 0 -14 6 -18 14 -6 11 -22 11 -79 3 -58 -8 -76 -7 -92 5
-13 8 -35 12 -58 10 -24 -3 -32 -7 -23 -13 7 -4 11 -11 8 -14 -9 -8 -40 6 -34
15 9 15 -9 17 -70 10 -40 -5 -62 -3 -67 4 -5 8 -8 7 -8 -1z m495 -47 c8 -7 12
-16 9 -19 -10 -9 -34 4 -34 19 0 18 8 18 25 0z m129 -54 c-6 -8 -44 20 -39 28
3 5 14 2 24 -8 10 -9 17 -18 15 -20z m-134 8 c0 -13 -11 -13 -30 0 -12 8 -11
10 8 10 12 0 22 -4 22 -10z m100 -20 c0 -5 -7 -7 -15 -4 -8 4 -15 8 -15 10 0
2 7 4 15 4 8 0 15 -4 15 -10z m70 -40 c8 -5 11 -10 5 -10 -5 0 -17 5 -25 10
-8 5 -10 10 -5 10 6 0 17 -5 25 -10z m107 -36 c-3 -3 -12 -4 -19 -1 -8 3 -5 6
6 6 11 1 17 -2 13 -5z m-607 -244 c0 -5 -4 -10 -10 -10 -5 0 -10 5 -10 10 0 6
5 10 10 10 6 0 10 -4 10 -10z"/>
<path d="M9676 7479 c12 -13 20 -16 22 -9 3 7 -2 16 -9 21 -25 16 -32 9 -13
-12z"/>
<path d="M9777 7489 c7 -7 15 -10 18 -7 3 3 -2 9 -12 12 -14 6 -15 5 -6 -5z"/>
<path d="M9808 7433 c7 -3 16 -2 19 1 4 3 -2 6 -13 5 -11 0 -14 -3 -6 -6z"/>
<path d="M9847 7415 c3 -8 9 -12 14 -9 12 7 11 11 -5 17 -10 4 -13 1 -9 -8z"/>
<path d="M9798 7353 c7 -3 16 -2 19 1 4 3 -2 6 -13 5 -11 0 -14 -3 -6 -6z"/>
<path d="M9788 7323 c7 -3 16 -2 19 1 4 3 -2 6 -13 5 -11 0 -14 -3 -6 -6z"/>
<path d="M9920 7299 c0 -5 9 -9 19 -9 11 0 28 -3 38 -7 10 -3 15 -3 12 1 -11
12 -69 25 -69 15z"/>
<path d="M9898 7273 c7 -3 16 -2 19 1 4 3 -2 6 -13 5 -11 0 -14 -3 -6 -6z"/>
<path d="M9220 7125 c0 -7 62 -37 66 -32 7 7 -22 27 -45 32 -12 2 -21 2 -21 0z"/>
<path d="M9388 6903 c7 -3 16 -2 19 1 4 3 -2 6 -13 5 -11 0 -14 -3 -6 -6z"/>
<path d="M8740 6120 c0 -5 5 -10 11 -10 5 0 7 5 4 10 -3 6 -8 10 -11 10 -2 0
-4 -4 -4 -10z"/>
<path d="M8933 5981 c8 -23 13 -28 15 -16 2 10 -3 25 -12 33 -14 15 -15 13 -3
-17z"/>
<path d="M9021 5954 c0 -11 3 -14 6 -6 3 7 2 16 -1 19 -3 4 -6 -2 -5 -13z"/>
<path d="M9502 5500 c0 -14 2 -19 5 -12 2 6 2 18 0 25 -3 6 -5 1 -5 -13z"/>
<path d="M9495 5440 c3 -5 11 -10 16 -10 6 0 7 5 4 10 -3 6 -11 10 -16 10 -6
0 -7 -4 -4 -10z"/>
<path d="M9580 5392 c0 -23 4 -42 10 -42 5 0 7 17 4 37 -6 52 -14 54 -14 5z"/>
<path d="M9440 5353 c0 -7 9 -22 20 -33 11 -11 20 -26 20 -32 0 -9 4 -8 10 2
9 13 11 13 20 0 6 -10 10 -11 10 -3 0 7 -12 20 -27 30 -16 10 -33 25 -40 33
-9 10 -12 11 -13 3z"/>
<path d="M9600 5311 c0 -7 -6 -11 -14 -8 -8 3 -17 -1 -20 -9 -7 -18 5 -18 30
0 10 8 16 18 11 22 -4 4 -7 2 -7 -5z"/>
<path d="M8400 5267 c0 -16 42 -48 57 -44 16 4 17 5 1 6 -10 0 -18 7 -18 15 0
8 -7 17 -16 20 -18 7 -24 8 -24 3z"/>
<path d="M7535 5230 c3 -5 18 -10 33 -10 21 0 24 2 12 10 -20 13 -53 13 -45 0z"/>
<path d="M9396 5185 c4 -8 11 -15 16 -15 6 0 5 6 -2 15 -7 8 -14 15 -16 15 -2
0 -1 -7 2 -15z"/>
<path d="M8030 5096 c0 -9 30 -14 35 -6 4 6 -3 10 -14 10 -12 0 -21 -2 -21 -4z"/>
<path d="M7920 5051 c-6 -12 -7 -21 -1 -21 10 0 24 30 17 37 -2 3 -9 -5 -16
-16z"/>
<path d="M8000 5026 c0 -2 8 -10 18 -17 15 -13 16 -12 3 4 -13 16 -21 21 -21
13z"/>
<path d="M9291 5025 c0 -5 6 -19 14 -29 8 -11 15 -15 15 -10 0 6 -7 19 -15 30
-8 10 -14 15 -14 9z"/>
<path d="M7822 4979 c2 -7 17 -13 33 -15 l30 -3 -25 14 c-31 18 -43 19 -38 4z"/>
<path d="M9080 4963 c0 -4 5 -15 10 -23 8 -13 10 -13 10 2 0 9 -4 20 -10 23
-5 3 -10 3 -10 -2z"/>
<path d="M8010 4936 c0 -10 9 -16 25 -16 14 0 25 5 25 11 0 5 -5 7 -10 4 -6
-4 -17 -1 -25 5 -12 10 -15 9 -15 -4z"/>
<path d="M8082 4921 c4 -13 18 -16 19 -4 0 4 -5 9 -11 12 -7 2 -11 -2 -8 -8z"/>
<path d="M8225 4920 c-3 -5 -1 -10 4 -10 6 0 11 5 11 10 0 6 -2 10 -4 10 -3 0
-8 -4 -11 -10z"/>
<path d="M9211 4904 c0 -11 3 -14 6 -6 3 7 2 16 -1 19 -3 4 -6 -2 -5 -13z"/>
<path d="M8844 4896 c11 -9 24 -16 30 -16 12 0 7 5 -24 19 -24 11 -24 11 -6
-3z"/>
<path d="M8158 4879 c-22 -12 -23 -35 -2 -43 9 -4 13 -2 8 5 -4 7 4 20 17 30
26 20 8 26 -23 8z"/>
<path d="M8260 4860 c0 -5 5 -10 10 -10 6 0 10 5 10 10 0 6 -4 10 -10 10 -5 0
-10 -4 -10 -10z"/>
<path d="M8485 4830 c3 -5 8 -10 11 -10 2 0 4 5 4 10 0 6 -5 10 -11 10 -5 0
-7 -4 -4 -10z"/>
<path d="M8696 4797 c3 -10 9 -15 12 -12 3 3 0 11 -7 18 -10 9 -11 8 -5 -6z"/>
<path d="M8640 5901 c0 -5 7 -11 15 -15 8 -3 15 -1 15 3 0 5 -7 11 -15 15 -8
3 -15 1 -15 -3z"/>
<path d="M7415 5500 c-3 -5 1 -10 9 -10 9 0 16 5 16 10 0 6 -4 10 -9 10 -6 0
-13 -4 -16 -10z"/>
<path d="M7260 5580 c0 -5 5 -10 10 -10 6 0 10 5 10 10 0 6 -4 10 -10 10 -5 0
-10 -4 -10 -10z"/>
<path d="M6609 10517 c-13 -23 -27 -51 -32 -62 -7 -20 -7 -20 9 0 21 27 56 96
51 101 -2 2 -14 -15 -28 -39z"/>
<path d="M7455 10420 c3 -5 11 -10 16 -10 6 0 7 5 4 10 -3 6 -11 10 -16 10 -6
0 -7 -4 -4 -10z"/>
<path d="M6965 10298 c-72 -82 -136 -221 -116 -255 5 -9 12 6 20 44 16 69 49
136 88 179 55 61 73 84 64 84 -5 0 -30 -24 -56 -52z"/>
<path d="M6695 10304 c0 -13 3 -24 8 -24 4 0 7 9 7 19 0 11 -3 22 -7 24 -5 3
-8 -6 -8 -19z"/>
<path d="M6430 10243 c0 -13 5 -23 10 -23 13 0 13 11 0 30 -8 12 -10 11 -10
-7z"/>
<path d="M6210 10106 c0 -20 2 -36 4 -36 8 0 12 61 4 66 -4 3 -8 -11 -8 -30z"/>
<path d="M6311 10064 c0 -11 3 -14 6 -6 3 7 2 16 -1 19 -3 4 -6 -2 -5 -13z"/>
<path d="M6274 9969 c-3 -6 -1 -16 5 -22 8 -8 11 -5 11 11 0 24 -5 28 -16 11z"/>
<path d="M6055 9570 c3 -5 10 -10 16 -10 5 0 9 5 9 10 0 6 -7 10 -16 10 -8 0
-12 -4 -9 -10z"/>
<path d="M10644 6796 c-72 -31 -252 -156 -225 -156 5 0 33 11 63 25 61 29 100
32 122 9 9 -8 16 -17 16 -19 0 -2 7 -37 16 -77 9 -42 16 -118 15 -180 0 -60 2
-108 5 -108 13 0 81 80 93 111 60 148 81 262 61 323 -24 73 -94 103 -166 72z"/>
<path d="M9144 4525 c-10 -8 -14 -14 -9 -15 15 0 40 18 34 24 -3 3 -14 -1 -25
-9z"/>
<path d="M9244 4179 c-6 -8 -30 -50 -54 -94 -93 -174 -354 -542 -477 -676 -20
-21 -43 -49 -52 -61 -8 -13 -21 -29 -28 -36 -20 -20 -75 -102 -69 -102 3 0 1
-11 -4 -25 -7 -18 -6 -32 2 -45 10 -16 9 -25 -5 -49 -21 -35 -22 -51 -3 -51 9
0 17 -15 21 -40 7 -39 8 -40 48 -41 23 0 35 -3 27 -6 -8 -2 -21 -7 -29 -9 -11
-4 -10 -8 5 -19 13 -10 14 -14 5 -15 -9 0 -11 -8 -7 -24 4 -16 -1 -32 -15 -50
-43 -55 0 -22 89 67 89 90 100 106 183 269 11 21 26 68 35 105 8 37 44 127 80
200 90 183 115 247 195 487 65 196 78 247 53 215z m-556 -1269 c-7 -11 -16
-20 -20 -20 -5 0 -3 9 4 20 7 11 16 20 20 20 5 0 3 -9 -4 -20z"/>
<path d="M7350 3610 c0 -5 5 -10 10 -10 6 0 10 5 10 10 0 6 -4 10 -10 10 -5 0
-10 -4 -10 -10z"/>
<path d="M5777 3515 c-16 -90 -31 -141 -48 -170 -21 -34 -25 -55 -7 -37 17 17
45 15 56 -5 9 -14 11 -14 22 6 7 14 9 33 4 49 -4 15 -10 65 -14 112 -5 75 -7
80 -13 45z"/>
<path d="M5740 3295 c0 -8 5 -15 10 -15 6 0 10 7 10 15 0 8 -4 15 -10 15 -5 0
-10 -7 -10 -15z"/>
<path d="M8500 2750 c0 -5 5 -10 10 -10 6 0 10 5 10 10 0 6 -4 10 -10 10 -5 0
-10 -4 -10 -10z"/>
<path d="M8408 2723 c7 -3 16 -2 19 1 4 3 -2 6 -13 5 -11 0 -14 -3 -6 -6z"/>
</g>
</svg>
